<svg version="1.1" preserveAspectRatio="none" xmlns="http://www.w3.org/2000/svg" width="500" height="500" viewBox="0 0 500 500"><rect width="100%" height="100%" fill="#EFFFE0" fill-opacity="1"/><svg viewBox="456.2268 574.475 363.4958 352.5799" width="333" height="322.99989903597236" x="83.5px" y="88.5001px" xmlns="http://www.w3.org/2000/svg" xmlns:xlink="http://www.w3.org/1999/xlink" preserveAspectRatio="none"><defs></defs><style>.companyName {fill:#313131;fill-opacity:1;}.icon1 {fill:#313131;fill-opacity:1;}.icon2 {fill:#C2EF7E;fill-opacity:1;}.icon3 {fill:#6B7D3B;fill-opacity:1;}.icon3-str {stroke:#6B7D3B;stroke-opacity:1;}.text {fill:#313131;fill-opacity:1;}</style><g opacity="1" transform="rotate(0 515.6411 903.0549)">
<svg width="244.6672" height="24" x="515.6411" y="903.0549" version="1.1" preserveAspectRatio="none" viewBox="3.48 -29.46 370.22 36.32">
  <g transform="matrix(1 0 0 1 0 0)" class="text"><path id="id-6izo4zJp18" d="M13.62 0L3.48 0L3.48-28.66L12.62-28.66Q15.26-28.66 17.17-28.14Q19.08-27.62 20.31-26.66Q21.54-25.70 22.13-24.31Q22.72-22.92 22.72-21.18L22.72-21.18Q22.72-20.12 22.39-19.14Q22.06-18.16 21.39-17.32Q20.72-16.48 19.71-15.82Q18.70-15.16 17.34-14.74L17.34-14.74Q20.48-14.12 22.08-12.48Q23.68-10.84 23.68-8.16L23.68-8.16Q23.68-6.34 23.01-4.84Q22.34-3.34 21.05-2.26Q19.76-1.18 17.89-0.59Q16.02 0 13.62 0L13.62 0ZM13.54-13.06L7.36-13.06L7.36-3.08L13.56-3.08Q15.22-3.08 16.41-3.46Q17.60-3.84 18.37-4.53Q19.14-5.22 19.50-6.17Q19.86-7.12 19.86-8.26L19.86-8.26Q19.86-10.48 18.29-11.77Q16.72-13.06 13.54-13.06L13.54-13.06ZM7.36-25.60L7.36-15.82L12.48-15.82Q14.12-15.82 15.32-16.18Q16.52-16.54 17.31-17.18Q18.10-17.82 18.48-18.73Q18.86-19.64 18.86-20.72L18.86-20.72Q18.86-23.24 17.34-24.42Q15.82-25.60 12.62-25.60L12.62-25.60L7.36-25.60Z M39.40-20.58L39.40-20.58Q41.62-20.58 43.41-19.84Q45.20-19.10 46.45-17.74Q47.70-16.38 48.37-14.45Q49.04-12.52 49.04-10.14L49.04-10.14Q49.04-7.74 48.37-5.82Q47.70-3.90 46.45-2.54Q45.20-1.18 43.41-0.45Q41.62 0.28 39.40 0.28L39.40 0.28Q37.18 0.28 35.39-0.45Q33.60-1.18 32.34-2.54Q31.08-3.90 30.40-5.82Q29.72-7.74 29.72-10.14L29.72-10.14Q29.72-12.52 30.40-14.45Q31.08-16.38 32.34-17.74Q33.60-19.10 35.39-19.84Q37.18-20.58 39.40-20.58ZM39.40-2.50L39.40-2.50Q42.40-2.50 43.88-4.51Q45.36-6.52 45.36-10.12L45.36-10.12Q45.36-13.74 43.88-15.76Q42.40-17.78 39.40-17.78L39.40-17.78Q37.88-17.78 36.76-17.26Q35.64-16.74 34.89-15.76Q34.14-14.78 33.77-13.35Q33.40-11.92 33.40-10.12L33.40-10.12Q33.40-8.32 33.77-6.90Q34.14-5.48 34.89-4.51Q35.64-3.54 36.76-3.02Q37.88-2.50 39.40-2.50Z M64.04-20.58L64.04-20.58Q66.26-20.58 68.05-19.84Q69.84-19.10 71.09-17.74Q72.34-16.38 73.01-14.45Q73.68-12.52 73.68-10.14L73.68-10.14Q73.68-7.74 73.01-5.82Q72.34-3.90 71.09-2.54Q69.84-1.18 68.05-0.45Q66.26 0.28 64.04 0.28L64.04 0.28Q61.82 0.28 60.03-0.45Q58.24-1.18 56.98-2.54Q55.72-3.90 55.04-5.82Q54.36-7.74 54.36-10.14L54.36-10.14Q54.36-12.52 55.04-14.45Q55.72-16.38 56.98-17.74Q58.24-19.10 60.03-19.84Q61.82-20.58 64.04-20.58ZM64.04-2.50L64.04-2.50Q67.04-2.50 68.52-4.51Q70-6.52 70-10.12L70-10.12Q70-13.74 68.52-15.76Q67.04-17.78 64.04-17.78L64.04-17.78Q62.52-17.78 61.40-17.26Q60.28-16.74 59.53-15.76Q58.78-14.78 58.41-13.35Q58.04-11.92 58.04-10.12L58.04-10.12Q58.04-8.32 58.41-6.90Q58.78-5.48 59.53-4.51Q60.28-3.54 61.40-3.02Q62.52-2.50 64.04-2.50Z M80.60-29.46L84.18-29.46L84.18-12.12L85.10-12.12Q85.50-12.12 85.76-12.23Q86.02-12.34 86.34-12.68L86.34-12.68L92.74-19.54Q93.04-19.86 93.34-20.06Q93.64-20.26 94.14-20.26L94.14-20.26L97.38-20.26L89.92-12.32Q89.64-11.98 89.37-11.72Q89.10-11.46 88.76-11.26L88.76-11.26Q89.12-11.02 89.41-10.71Q89.70-10.40 89.96-10L89.96-10L97.88 0L94.68 0Q94.24 0 93.93-0.17Q93.62-0.34 93.34-0.70L93.34-0.70L86.68-9Q86.38-9.42 86.08-9.55Q85.78-9.68 85.18-9.68L85.18-9.68L84.18-9.68L84.18 0L80.60 0L80.60-29.46Z M131.20-20.26L119.90 5.98Q119.72 6.38 119.45 6.62Q119.18 6.86 118.62 6.86L118.62 6.86L115.98 6.86L119.68-1.18L111.32-20.26L114.40-20.26Q114.86-20.26 115.12-20.03Q115.38-19.80 115.50-19.52L115.50-19.52L120.92-6.76Q121.10-6.32 121.23-5.88Q121.36-5.44 121.46-4.98L121.46-4.98Q121.60-5.44 121.74-5.88Q121.88-6.32 122.06-6.78L122.06-6.78L127.32-19.52Q127.44-19.84 127.73-20.05Q128.02-20.26 128.36-20.26L128.36-20.26L131.20-20.26Z M144.52-20.58L144.52-20.58Q146.74-20.58 148.53-19.84Q150.32-19.10 151.57-17.74Q152.82-16.38 153.49-14.45Q154.16-12.52 154.16-10.14L154.16-10.14Q154.16-7.74 153.49-5.82Q152.82-3.90 151.57-2.54Q150.32-1.18 148.53-0.45Q146.74 0.28 144.52 0.28L144.52 0.28Q142.30 0.28 140.51-0.45Q138.72-1.18 137.46-2.54Q136.20-3.90 135.52-5.82Q134.84-7.74 134.84-10.14L134.84-10.14Q134.84-12.52 135.52-14.45Q136.20-16.38 137.46-17.74Q138.72-19.10 140.51-19.84Q142.30-20.58 144.52-20.58ZM144.52-2.50L144.52-2.50Q147.52-2.50 149-4.51Q150.48-6.52 150.48-10.12L150.48-10.12Q150.48-13.74 149-15.76Q147.52-17.78 144.52-17.78L144.52-17.78Q143-17.78 141.88-17.26Q140.76-16.74 140.01-15.76Q139.26-14.78 138.89-13.35Q138.52-11.92 138.52-10.12L138.52-10.12Q138.52-8.32 138.89-6.90Q139.26-5.48 140.01-4.51Q140.76-3.54 141.88-3.02Q143-2.50 144.52-2.50Z M160.48-20.26L164.04-20.26L164.04-7.34Q164.04-5.04 165.10-3.78Q166.16-2.52 168.30-2.52L168.30-2.52Q169.86-2.52 171.24-3.26Q172.62-4 173.78-5.32L173.78-5.32L173.78-20.26L177.34-20.26L177.34 0L175.22 0Q174.46 0 174.26-0.74L174.26-0.74L173.98-2.92Q172.66-1.46 171.02-0.57Q169.38 0.32 167.26 0.32L167.26 0.32Q165.60 0.32 164.33-0.23Q163.06-0.78 162.20-1.78Q161.34-2.78 160.91-4.20Q160.48-5.62 160.48-7.34L160.48-7.34L160.48-20.26Z M189.16 0L185.60 0L185.60-20.26L187.64-20.26Q188.22-20.26 188.44-20.04Q188.66-19.82 188.74-19.28L188.74-19.28L188.98-16.12Q190.02-18.24 191.55-19.43Q193.08-20.62 195.14-20.62L195.14-20.62Q195.98-20.62 196.66-20.43Q197.34-20.24 197.92-19.90L197.92-19.90L197.46-17.24Q197.32-16.74 196.84-16.74L196.84-16.74Q196.56-16.74 195.98-16.93Q195.40-17.12 194.36-17.12L194.36-17.12Q192.50-17.12 191.25-16.04Q190.00-14.96 189.16-12.90L189.16-12.90L189.16 0Z M217.80 0L214.24 0L214.24-29.46L217.80-29.46L217.80-17.54Q219.10-18.92 220.68-19.75Q222.26-20.58 224.32-20.58L224.32-20.58Q225.98-20.58 227.25-20.03Q228.52-19.48 229.37-18.47Q230.22-17.46 230.66-16.04Q231.10-14.62 231.10-12.90L231.10-12.90L231.10 0L227.54 0L227.54-12.90Q227.54-15.20 226.49-16.47Q225.44-17.74 223.28-17.74L223.28-17.74Q221.70-17.74 220.33-16.98Q218.96-16.22 217.80-14.92L217.80-14.92L217.80 0Z M253.76-12.96L253.76 0L252.18 0Q251.66 0 251.34-0.16Q251.02-0.32 250.92-0.84L250.92-0.84L250.52-2.72Q249.72-2 248.96-1.43Q248.20-0.86 247.36-0.47Q246.52-0.08 245.57 0.12Q244.62 0.32 243.46 0.32L243.46 0.32Q242.28 0.32 241.25-0.01Q240.22-0.34 239.46-1Q238.70-1.66 238.25-2.67Q237.80-3.68 237.80-5.06L237.80-5.06Q237.80-6.26 238.46-7.37Q239.12-8.48 240.59-9.34Q242.06-10.20 244.44-10.75Q246.82-11.30 250.26-11.38L250.26-11.38L250.26-12.96Q250.26-15.32 249.25-16.53Q248.24-17.74 246.26-17.74L246.26-17.74Q244.96-17.74 244.07-17.41Q243.18-17.08 242.53-16.67Q241.88-16.26 241.41-15.93Q240.94-15.60 240.48-15.60L240.48-15.60Q240.12-15.60 239.85-15.79Q239.58-15.98 239.42-16.26L239.42-16.26L238.78-17.40Q240.46-19.02 242.40-19.82Q244.34-20.62 246.70-20.62L246.70-20.62Q248.40-20.62 249.72-20.06Q251.04-19.50 251.94-18.50Q252.84-17.50 253.30-16.08Q253.76-14.66 253.76-12.96L253.76-12.96ZM244.52-2.18L244.52-2.18Q245.46-2.18 246.24-2.37Q247.02-2.56 247.71-2.91Q248.40-3.26 249.03-3.76Q249.66-4.26 250.26-4.90L250.26-4.90L250.26-9.12Q247.80-9.04 246.08-8.73Q244.36-8.42 243.28-7.92Q242.20-7.42 241.71-6.74Q241.22-6.06 241.22-5.22L241.22-5.22Q241.22-4.42 241.48-3.84Q241.74-3.26 242.18-2.89Q242.62-2.52 243.22-2.35Q243.82-2.18 244.52-2.18Z M261.96-29.46L265.52-29.46L265.52 0L261.96 0L261.96-29.46Z M274.60-29.46L278.16-29.46L278.16 0L274.60 0L274.60-29.46Z M300.52 0L296.96 0L296.96-20.26L299.08-20.26Q299.84-20.26 300.04-19.52L300.04-19.52L300.32-17.32Q301.64-18.78 303.27-19.68Q304.90-20.58 307.04-20.58L307.04-20.58Q308.70-20.58 309.97-20.03Q311.24-19.48 312.09-18.47Q312.94-17.46 313.38-16.04Q313.82-14.62 313.82-12.90L313.82-12.90L313.82 0L310.26 0L310.26-12.90Q310.26-15.20 309.21-16.47Q308.16-17.74 306-17.74L306-17.74Q304.42-17.74 303.05-16.98Q301.68-16.22 300.52-14.92L300.52-14.92L300.52 0Z M329.80-20.58L329.80-20.58Q332.02-20.58 333.81-19.84Q335.60-19.10 336.85-17.74Q338.10-16.38 338.77-14.45Q339.44-12.52 339.44-10.14L339.44-10.14Q339.44-7.74 338.77-5.82Q338.10-3.90 336.85-2.54Q335.60-1.18 333.81-0.45Q332.02 0.28 329.80 0.28L329.80 0.28Q327.58 0.28 325.79-0.45Q324-1.18 322.74-2.54Q321.48-3.90 320.80-5.82Q320.12-7.74 320.12-10.14L320.12-10.14Q320.12-12.52 320.80-14.45Q321.48-16.38 322.74-17.74Q324-19.10 325.79-19.84Q327.58-20.58 329.80-20.58ZM329.80-2.50L329.80-2.50Q332.80-2.50 334.28-4.51Q335.76-6.52 335.76-10.12L335.76-10.12Q335.76-13.74 334.28-15.76Q332.80-17.78 329.80-17.78L329.80-17.78Q328.28-17.78 327.16-17.26Q326.04-16.74 325.29-15.76Q324.54-14.78 324.17-13.35Q323.80-11.92 323.80-10.12L323.80-10.12Q323.80-8.32 324.17-6.90Q324.54-5.48 325.29-4.51Q326.04-3.54 327.16-3.02Q328.28-2.50 329.80-2.50Z M350.16 0L343.60-20.26L346.40-20.26Q346.84-20.26 347.12-20.04Q347.40-19.82 347.50-19.52L347.50-19.52L351.38-6.48Q351.54-5.76 351.68-5.09Q351.82-4.42 351.92-3.74L351.92-3.74Q352.08-4.42 352.28-5.09Q352.48-5.76 352.70-6.48L352.70-6.48L356.98-19.60Q357.08-19.90 357.33-20.10Q357.58-20.30 357.96-20.30L357.96-20.30L359.50-20.30Q359.90-20.30 360.16-20.10Q360.42-19.90 360.52-19.60L360.52-19.60L364.70-6.48Q364.92-5.78 365.09-5.10Q365.26-4.42 365.42-3.76L365.42-3.76Q365.52-4.42 365.68-5.14Q365.84-5.86 366.02-6.48L366.02-6.48L369.98-19.52Q370.08-19.84 370.36-20.05Q370.64-20.26 371.02-20.26L371.02-20.26L373.70-20.26L367.14 0L364.32 0Q363.80 0 363.60-0.68L363.60-0.68L359.12-14.42Q358.96-14.88 358.86-15.35Q358.76-15.82 358.66-16.28L358.66-16.28Q358.56-15.82 358.46-15.34Q358.36-14.86 358.20-14.40L358.20-14.40L353.66-0.68Q353.44 0 352.84 0L352.84 0L350.16 0Z"/></g>
</svg>
</g><g opacity="1" transform="rotate(0 456.2268 758.0549)">
<svg width="363.4958" height="120" x="456.2268" y="758.0549" version="1.1" preserveAspectRatio="none" viewBox="1.8 -31.2 95.72 31.6">
  <g transform="matrix(1 0 0 1 0 0)" class="companyName"><path id="id-D6z1nYkh3" d="M26.32-23.08L26.32-23.08Q26.32-19.88 24.40-17.76Q22.48-15.64 18.28-14.92L18.28-14.92L27.12-4.28Q28.20-2.96 29.50-2.38Q30.80-1.80 32.60-1.52L32.60-1.52L32.60 0L24.88 0L15.08-12.56Q14.56-13.24 14.10-13.64Q13.64-14.04 13.14-14.26Q12.64-14.48 11.98-14.54Q11.32-14.60 10.40-14.60L10.40-14.60L10.40-6.28Q10.40-4.80 10.58-3.86Q10.76-2.92 11.34-2.40Q11.92-1.88 13.02-1.70Q14.12-1.52 15.92-1.52L15.92-1.52L15.92 0L1.80 0L1.80-1.52Q3.20-1.56 4.06-1.76Q4.92-1.96 5.40-2.44Q5.88-2.92 6.04-3.80Q6.20-4.68 6.20-6.08L6.20-6.08L6.20-24.72Q6.20-26.12 6.06-26.98Q5.92-27.84 5.50-28.34Q5.08-28.84 4.28-29.02Q3.48-29.20 2.20-29.28L2.20-29.28L2.20-30.80L14.76-30.80Q20.28-30.80 23.30-28.76Q26.32-26.72 26.32-23.08ZM10.40-28.24L10.40-16.60L13.24-16.60Q17.24-16.60 19.18-18.06Q21.12-19.52 21.12-22.88L21.12-22.88Q21.12-26.12 19.58-27.52Q18.04-28.92 14.76-28.92L14.76-28.92L11.08-28.92Q10.40-28.92 10.40-28.24L10.40-28.24Z M48.16 0.40L48.16 0.40Q44.76 0.40 42.04-0.68Q39.32-1.76 37.40-3.74Q35.48-5.72 34.46-8.56Q33.44-11.40 33.44-14.88L33.44-14.88Q33.44-18.52 34.56-21.52Q35.68-24.52 37.70-26.68Q39.72-28.84 42.54-30.02Q45.36-31.20 48.76-31.20L48.76-31.20Q51.16-31.20 53.28-30.52Q55.40-29.84 57.88-28.32L57.88-28.32L58.72-30.80L60.12-30.80L59.60-21.60L57.68-21.60Q57.68-23.56 56.94-24.98Q56.20-26.40 55-27.32Q53.80-28.24 52.26-28.68Q50.72-29.12 49.12-29.12L49.12-29.12Q46.68-29.12 44.76-28.16Q42.84-27.20 41.52-25.40Q40.20-23.60 39.50-21Q38.80-18.40 38.80-15.12L38.80-15.12Q38.80-8.68 41.48-5.22Q44.16-1.76 49.24-1.76L49.24-1.76Q51.16-1.76 52.68-2.22Q54.20-2.68 55.26-3.46Q56.32-4.24 56.86-5.26Q57.40-6.28 57.40-7.40L57.40-7.40Q57.40-9.72 56.46-10.54Q55.52-11.36 53.40-11.36L53.40-11.36L53.40-12.88L64.76-12.88L64.76-11.36Q63.80-11.36 63.16-11.20Q62.52-11.04 62.14-10.62Q61.76-10.20 61.62-9.52Q61.48-8.84 61.48-7.80L61.48-7.80L61.48-3.32Q60.72-3.32 60.10-3.26Q59.48-3.20 58.80-2.98Q58.12-2.76 57.30-2.38Q56.48-2 55.36-1.36L55.36-1.36Q53.96-0.56 52.14-0.08Q50.32 0.40 48.16 0.40Z M76.24-11.40L76.24-6.36Q76.24-4.84 76.40-3.88Q76.56-2.92 77.04-2.40Q77.52-1.88 78.36-1.70Q79.20-1.52 80.60-1.52L80.60-1.52L80.60 0L67.64 0L67.64-1.52Q69.04-1.52 69.90-1.70Q70.76-1.88 71.24-2.38Q71.72-2.88 71.88-3.78Q72.04-4.68 72.04-6.08L72.04-6.08L72.04-24.72Q72.04-26.24 71.86-27.14Q71.68-28.04 71.22-28.52Q70.76-29 70-29.14Q69.24-29.28 68.04-29.28L68.04-29.28L68.04-30.80L80.20-30.80L80.20-29.28Q79-29.28 78.24-29.12Q77.48-28.96 77.02-28.44Q76.56-27.92 76.40-26.98Q76.24-26.04 76.24-24.44L76.24-24.44L76.24-14.56L86.24-26.60Q87.04-27.60 87.04-28.16L87.04-28.16Q87.04-29.28 84.76-29.28L84.76-29.28L84.76-30.80L94.40-30.80L94.40-29.32Q93.60-29.32 93-29.22Q92.40-29.12 91.82-28.80Q91.24-28.48 90.60-27.88Q89.96-27.28 89.12-26.32L89.12-26.32L81.60-17.64L93.28-3.60Q94.28-2.44 95.16-1.98Q96.04-1.52 97.52-1.52L97.52-1.52L97.52 0L85.24 0L85.24-1.52Q86.80-1.52 87.48-1.78Q88.16-2.04 88.16-2.60L88.16-2.60Q88.16-2.92 87.84-3.52Q87.52-4.12 86.80-5L86.80-5L79-14.60L76.24-11.40Z"/></g>
</svg>
</g><g opacity="1" transform="rotate(0 565.2755 574.475)">
<svg width="145.3983" height="143.5799" x="565.2755" y="574.475" version="1.1" preserveAspectRatio="none" viewBox="20 21 160 157.99900817871094">
  <g transform="matrix(1 0 0 1 0 0)" ><g><path d="M136.535 99.999a181.02 181.02 0 0 1 3.976-4.148c19.535-19.73 39.291-31.105 39.489-31.217l-.474-1.374c-18.263.992-42.469 4.432-60.26 14.78-14.599-22.561-18.32-42.641-18.389-57.04l-.881.004-.874-.004c-.105 21.803-8.109 41.135-18.408 57.029-17.786-10.337-41.974-13.776-60.23-14.768L20 64.633c.196.112 19.927 11.468 39.461 31.189a188.03 188.03 0 0 1 4.004 4.181 183.013 183.013 0 0 1-3.975 4.147c-19.535 19.729-39.291 31.105-39.489 31.216l.478 1.373c18.263-.991 42.465-4.432 60.254-14.778 14.599 22.56 18.318 42.639 18.389 57.038l.808-.004.949.004c.105-21.802 8.109-41.134 18.408-57.028 17.787 10.338 41.977 13.777 60.232 14.768l.48-1.372c-.198-.113-19.955-11.488-39.489-31.216a187.658 187.658 0 0 1-3.975-4.152zm2.959-5.215a185.993 185.993 0 0 0-3.959 4.134 171.253 171.253 0 0 1-7.191-8.361c10.591-9.11 25.557-18.228 46.48-24.45-6.996 4.515-21.223 14.436-35.33 28.677zm-4.965 5.22a173.093 173.093 0 0 0-7.298 8.477 97.283 97.283 0 0 1-8.474-8.479 97.281 97.281 0 0 1 8.48-8.485 173.208 173.208 0 0 0 7.292 8.487zm38.162-34.79c-20.228 6.262-34.835 15.225-45.27 24.193a149.214 149.214 0 0 1-7.346-10.132c15.371-8.923 35.671-12.624 52.616-14.061zm-46.365 25.148a98.785 98.785 0 0 0-8.542 8.517 86.953 86.953 0 0 1-8.418-11.65 48.65 48.65 0 0 1 3.835-3.338 58.865 58.865 0 0 1 5.622-3.871 152.991 152.991 0 0 0 7.503 10.342zm-27.199 9.639c-.136.546-1.525 5.548-7.441 11.644a90.59 90.59 0 0 0-4.6-6.791 91.222 91.222 0 0 0-3.891-4.855 91.2 91.2 0 0 0 3.891-4.854 90.821 90.821 0 0 0 4.585-6.764c5.912 6.088 7.318 11.079 7.456 11.62zM92.497 87c4.483-7.624 6.601-13.902 7.502-17.166.901 3.264 3.019 9.542 7.502 17.166-4.577 4.64-6.639 8.719-7.502 10.95-.862-2.231-2.923-6.31-7.502-10.95zM100 102.052c.863 2.231 2.924 6.31 7.502 10.95-4.484 7.625-6.602 13.904-7.502 17.167-.901-3.263-3.018-9.541-7.502-17.167 4.578-4.641 6.64-8.72 7.502-10.95zm.874-2.052c.103-.427 1.443-5.514 7.41-11.694a90.527 90.527 0 0 0 4.63 6.839 91.263 91.263 0 0 0 3.892 4.856 91.2 91.2 0 0 0-3.891 4.854 90.821 90.821 0 0 0-4.585 6.764c-5.908-6.082-7.317-11.069-7.456-11.619zm-.882-69.075c2.04 18.076 9.201 34.224 18.032 47.862a60.074 60.074 0 0 0-5.861 4.049 51.066 51.066 0 0 0-3.572 3.084c-6.176-10.656-7.705-18.669-7.724-18.768l-.867.159-.867-.159c-.036.198-1.596 8.107-7.784 18.714a51.092 51.092 0 0 0-3.511-3.029 60.323 60.323 0 0 0-5.843-4.039c11.668-18.045 16.467-34.54 17.997-47.873zM81.14 80.107c3.894 2.389 6.967 4.826 9.384 7.142a90.485 90.485 0 0 1-8.371 11.561 99.065 99.065 0 0 0-8.464-8.434 151.699 151.699 0 0 0 7.451-10.269zm.041 19.823a97.702 97.702 0 0 1-8.455 8.51 172.908 172.908 0 0 0-7.256-8.442 173.093 173.093 0 0 0 7.298-8.477 97.037 97.037 0 0 1 8.413 8.409zm-1.319-20.589a151.88 151.88 0 0 1-7.296 10.05C62.13 80.427 47.527 71.469 27.305 65.21c25.355 2.129 41.857 7.89 52.557 14.131zM60.506 94.783C46.398 80.541 32.172 70.621 25.177 66.106 46.095 72.325 61.06 81.441 71.65 90.549a172.122 172.122 0 0 1-7.179 8.368 184.186 184.186 0 0 0-3.965-4.134zm0 10.434c1.34-1.358 2.66-2.736 3.959-4.133a171.107 171.107 0 0 1 7.158 8.321c-10.847 9.389-25.824 18.361-46.447 24.491 6.994-4.515 21.221-14.435 35.33-28.679zm-33.207 29.574c20.233-6.262 34.843-15.226 45.281-24.196a149.877 149.877 0 0 1 7.312 10.08c-10.696 6.236-27.204 11.989-52.593 14.116zm46.375-25.153a98.785 98.785 0 0 0 8.542-8.517 87.034 87.034 0 0 1 8.387 11.6c-2.427 2.336-5.523 4.797-9.46 7.208a153.526 153.526 0 0 0-7.469-10.291zm26.333 59.441c-2.039-18.078-9.2-34.227-18.031-47.866a60.074 60.074 0 0 0 5.861-4.049 51.066 51.066 0 0 0 3.572-3.084c6.174 10.655 7.705 18.665 7.723 18.766l.864-.158.87.159c.019-.1 1.549-8.112 7.724-18.767a51.244 51.244 0 0 0 3.571 3.083 60.137 60.137 0 0 0 5.843 4.038c-11.668 18.049-16.467 34.545-17.997 47.878zm18.853-49.184c-3.928-2.409-7.02-4.868-9.447-7.202a87.098 87.098 0 0 1 8.371-11.571 98.745 98.745 0 0 0 8.527 8.504 151.197 151.197 0 0 0-7.451 10.269zm1.279.764a152.259 152.259 0 0 1 7.297-10.05c10.435 8.964 25.038 17.921 45.258 24.18-25.354-2.128-41.855-7.889-52.555-14.13zm8.211-11.207a172.122 172.122 0 0 1 7.179-8.368c1.3 1.398 2.621 2.775 3.964 4.132 14.108 14.241 28.334 24.162 35.329 28.677-20.917-6.218-35.882-15.334-46.472-24.441z" data-color="1" class="icon1"></path></g></g>
</svg>
</g></svg></svg>